<svg xmlns="http://www.w3.org/2000/svg" xmlns:xlink="http://www.w3.org/1999/xlink" viewBox="0 0 128 128">
  <defs>
    <style>
      .a {
        fill: none;
      }

      .b {
        fill: #db5856;
      }

      .c, .e {
        fill: #fff;
      }

      .d {
        clip-path: url(#a);
      }

      .e {
        opacity: 0.25;
      }
    </style>
    <clipPath id="a">
      <rect class="a" y="-281.32" width="772" height="250"/>
    </clipPath>
  </defs>
  <title>ew-logo</title>
  <rect class="b" width="128" height="128"/>
  <path class="c" d="M112.48,43.3a5.12,5.12,0,0,0-2.73-2.86A5.06,5.06,0,0,0,103,43L90.39,71.37,84.65,58.51s-.46-.81-.69-1.1a5.59,5.59,0,0,0-2.12-1.74,4.76,4.76,0,0,0-.9-.3,3.84,3.84,0,0,0-1.21-.16,5.39,5.39,0,0,0-2.68.8l-.12.07a5.71,5.71,0,0,0-1.84,2.2l-5.8,13s-4-9.2-5.43-12.22a5.75,5.75,0,0,0-2.23-2.87,5.32,5.32,0,0,0-2.94-.67,5,5,0,0,0-3.1,1.07,4.75,4.75,0,0,0-1.11,1.31,4.24,4.24,0,0,0-.57,3.56c1,3.09.56,6.32-1.41,9.73a13.37,13.37,0,0,1-6.63,5.83,14.22,14.22,0,0,1-7,.94s0,0,0,0a14.06,14.06,0,0,1-1.78-.3,14.84,14.84,0,0,1-7.5-3.92,13.83,13.83,0,0,1-3.18-4h0a14.5,14.5,0,0,1-.9-2.27,13.49,13.49,0,0,1,.69-9.37,14.46,14.46,0,0,1,6.41-7.07,14.26,14.26,0,0,1,9.08-1.45l-6.26,14.5c-.94,2.25-.4,3-.21,3.49a4.06,4.06,0,0,0,2.58,2.19,4.28,4.28,0,0,0,1.87.27,3.93,3.93,0,0,0,3.55-2.46l8.5-19.69a4.71,4.71,0,0,0-2.51-6.51A24.84,24.84,0,0,0,17.15,54.49a24.19,24.19,0,0,0-1.71,13.3h0s0,0,0,.06c.12.8.29,1.6.49,2.39a1.29,1.29,0,0,1,0,.19l0,.08c.19.71.42,1.42.68,2.12l0,.1c.06.14.1.29.15.43,2.37,5.94,7.77,11,13.89,13.6.24.11-.25-.06,0,0a24.67,24.67,0,0,0,30-10.27L64.7,85a5.09,5.09,0,0,0,1,1.48A4.92,4.92,0,0,0,69,88.08h.77a5.46,5.46,0,0,0,1.76-.46,5.84,5.84,0,0,0,1.59-1.17,7,7,0,0,0,1-1.43c.46-.8,5.7-12.42,5.7-12.42l3.25,6.88s1.82,4.2,2.55,5.54a9.94,9.94,0,0,0,1.08,1.53,4.48,4.48,0,0,0,3.45,1.53h.57a4.69,4.69,0,0,0,2.68-1,6.17,6.17,0,0,0,1.65-2l17.31-37.79a4.67,4.67,0,0,0,.47-2A4.76,4.76,0,0,0,112.48,43.3Z"/>
  <g class="d">
    <path class="e" d="M793.22-340.4c-3.78-10.4-11.33-17.9-22.26-23.31a41.39,41.39,0,0,0-17.23-3.74c-16.39,0-30.67,9.57-37.8,25L613.2-111.61,566.38-216.38a86.34,86.34,0,0,0-5.56-9,45.65,45.65,0,0,0-17.29-14.2,41.51,41.51,0,0,0-7.38-2.46c-3.24-.79-6.53-1.56-9.84-1.28-9,.74-15.43,2.31-21.88,6.48l-.95.63a42.37,42.37,0,0,0-7.4,6.61,45.84,45.84,0,0,0-7.57,11.25L441.21-112S408.67-186.95,397-211.6c-4.76-10-9.26-18.35-18.18-23.4a43.32,43.32,0,0,0-24-5.43q-15.55.52-25.33,8.67a39.76,39.76,0,0,0-9.06,10.68c-4.8,8.32-8.18,17.88-4.65,29,8.17,25.25,4.63,51.52-11.43,79.34C291.86-91,272.84-74,250.33-65.18a116.12,116.12,0,0,1-57,7.61c-.32-.08.35,0,0,0-4.77-.32-10.05-1.55-14.5-2.38-25.75-4.92-45.63-17.43-61.13-31.95-10.39-9.27-19.77-20.51-25.9-32.55h0a117.16,117.16,0,0,1-7.34-18.48q-11-37.93,5.6-76.43c10.74-24.9,29.11-45.22,52.27-57.63,22.06-12,48-16,74-11.76l-51,118.18c-7.67,18.33-3.27,24.36-1.73,28.42,3.43,9,11.11,13.84,21,17.87a36,36,0,0,0,15.24,2.18c13-.94,22.07-6.24,29-20l69.3-160.54c9.43-21.83,1.14-43.89-20.48-53a199.76,199.76,0,0,0-152.61.31c-48.3,19.9-87.67,57.16-108.84,106.19A197.55,197.55,0,0,0,2.29-140.8h0c0,.15.07.3.09.45q1.53,9.81,4,19.47c.14.53.19,1.07.33,1.6.06.2.14.39.19.59,1.59,5.85,3.47,11.61,5.6,17.33.09.25.16.51.26.76.44,1.17.75,2.38,1.21,3.55C33.22-48.63,77.3-7.23,127.11,13.8c2,.85-2-.5,0,0a200.32,200.32,0,0,0,125.75,6.37,200.91,200.91,0,0,0,119-90.07L403.8-.32a40.58,40.58,0,0,0,8,12.07c8,7.9,16.82,12.48,27.31,12.9h6.31a45.51,45.51,0,0,0,14.28-3.74c1.68-1.26,9.24-4.58,13-9.58a60.76,60.76,0,0,0,8-11.65c3.77-6.55,46.41-101.2,46.41-101.2l26.55,56.08S568.42-11.23,574.35-.32a86.09,86.09,0,0,0,8.83,12.48c7,8.29,17.64,12.49,28.15,12.49h4.61a38.69,38.69,0,0,0,21.85-8.32c5-3.75,9.67-9.58,13.44-16.65l141.15-308a38.17,38.17,0,0,0,3.79-16.23A38,38,0,0,0,793.22-340.4Z"/>
  </g>
</svg>
